<svg width="44" height="46" viewBox="0 0 44 46" fill="none" xmlns="http://www.w3.org/2000/svg">
<g class="svg-tab-shadow" style="mix-blend-mode:hard-light" filter="url(#filter0_f_23_358)">
<rect x="12" y="12" width="20" height="21.0526" fill="#04C100"/>
</g>
<path class="svg-tab" d="M31.5707 29.9317H12.446V32.4617H31.5707V29.9317Z" fill="white"/>
<path class="svg-tab" d="M32.3678 33.3051H11.6494V34.9918H32.3678V33.3051Z" fill="white"/>
<path class="svg-tab" fill-rule="evenodd" clip-rule="evenodd" d="M23.6051 17.2817H24.3541L21.9635 21.4983L19.573 17.2817H20.4177C20.4177 17.2817 19.9874 12.4848 18.0271 8.00494C18.1068 8.23264 15.6365 13.9083 15.6365 17.2817C15.5967 17.3162 14.0428 17.2817 14.0428 17.2817C14.0428 17.2817 13.2459 12.4873 9.26161 10.535C8.83131 10.325 11.6283 22.9152 11.6522 29.0884H32.3706C32.3706 29.0884 32.769 16.2536 34.7612 11.3783C35.1038 10.535 30.7769 11.3783 29.98 17.2817C29.8127 17.4267 28.3863 17.2817 28.3863 17.2817C28.3863 17.2817 27.5496 10.6016 25.9957 8.00494C25.8523 8.12216 24.402 11.3783 23.6051 17.2817ZM17.5808 23.185L18.7761 25.2934L17.5808 27.4017L16.3855 25.2934L17.5808 23.185ZM26.3463 23.185L27.5416 25.2934L26.3463 27.4017L25.151 25.2934L26.3463 23.185Z" fill="white"/>
<defs>
<filter id="filter0_f_23_358" x="0" y="0" width="44" height="45.0526" filterUnits="userSpaceOnUse" color-interpolation-filters="sRGB">
<feFlood flood-opacity="0" result="BackgroundImageFix"/>
<feBlend mode="normal" in="SourceGraphic" in2="BackgroundImageFix" result="shape"/>
<feGaussianBlur stdDeviation="6" result="effect1_foregroundBlur_23_358"/>
</filter>
</defs>
</svg>
