<svg width="55" height="58" viewBox="0 0 55 58" fill="none" xmlns="http://www.w3.org/2000/svg">
    <g style="mix-blend-mode:hard-light" filter="url(#filter0_f_117_164)">
        <path d="M29.9699 42.3315L14.7203 26.3052L13.6683 27.4535L28.9179 43.4798L29.9699 42.3315Z" fill="#FFC803"/>
        <path fill-rule="evenodd" clip-rule="evenodd" d="M16.1484 29.4981L26.9619 40.8623L25.6183 41.1408L15.914 30.9422L16.1484 29.4981Z" fill="#FFC803"/>
        <path fill-rule="evenodd" clip-rule="evenodd" d="M22.1932 33.5937L19.9752 31.2627L34.7167 15.172L42.2275 12.9137L40.2617 20.9994L25.5202 37.0901L23.3022 34.7591L29.592 26.7057L22.1932 33.5937Z" fill="#FFC803"/>
        <path fill-rule="evenodd" clip-rule="evenodd" d="M18.4237 34.1434L12.8957 40.1774C12.8957 40.1774 11.6635 45.0863 12.218 45.669C12.7725 46.2518 17.3316 44.8393 17.3316 44.8393L22.8597 38.8053L18.4237 34.1434Z" fill="#FFC803"/>
    </g>
    <path d="M30.2173 39.5232L17.0705 26.3764L16.1627 27.3193L29.3095 40.4661L30.2173 39.5232Z" fill="white"/>
    <path fill-rule="evenodd" clip-rule="evenodd" d="M18.3015 28.9958L27.6238 38.3181L26.4649 38.5472L18.0987 30.1811L18.3015 28.9958Z" fill="white"/>
    <path fill-rule="evenodd" clip-rule="evenodd" d="M23.5125 32.3557L21.6002 30.4434L34.3098 17.243L40.7853 15.3903L39.0904 22.0236L26.3809 35.2241L24.4686 33.3118L29.8914 26.705L23.5125 32.3557Z" fill="white"/>
    <path fill-rule="evenodd" clip-rule="evenodd" d="M20.2626 32.8067L15.4965 37.7569C15.4965 37.7569 14.4342 41.784 14.9123 42.2621C15.3903 42.7401 19.321 41.5814 19.321 41.5814L24.0871 36.6312L20.2626 32.8067Z" fill="white"/>
    <defs>
        <filter id="filter0_f_117_164" x="-2" y="-2" width="59" height="62" filterUnits="userSpaceOnUse" color-interpolation-filters="sRGB">
        <feFlood flood-opacity="0" result="BackgroundImageFix"/>
        <feBlend mode="normal" in="SourceGraphic" in2="BackgroundImageFix" result="shape"/>
        <feGaussianBlur stdDeviation="6" result="effect1_foregroundBlur_117_164"/>
        </filter>
    </defs>
</svg>
