<svg width="54" height="54" viewBox="0 0 54 54" fill="none" xmlns="http://www.w3.org/2000/svg">
<g filter="url(#filter0_f_118_420)">
<path fill-rule="evenodd" clip-rule="evenodd" d="M16.9992 25.2899C16.4908 24.9216 15.9119 24.4155 15.5475 23.8135C15.045 22.984 14.2722 22.5048 12.1624 22.7773C12.1624 22.7773 14.3134 20.6032 16.3821 22.0586C16.7612 22.2413 17.1402 22.7234 17.7368 23.1547C17.4165 23.8285 17.1696 24.5442 16.9992 25.2899Z" fill="#FF9100"/>
<path fill-rule="evenodd" clip-rule="evenodd" d="M17.1782 30.7317C17.4015 31.4684 17.6983 32.1692 18.0657 32.822C17.4016 32.9418 16.4171 33.0376 15.5796 32.7921C14.6599 32.5225 13.7725 32.7022 12.3943 34.3523C12.3943 34.3523 12.5471 31.2678 15.036 30.9234C15.515 30.7736 16.2673 30.9383 17.1782 30.7317Z" fill="#FF9100"/>
<path fill-rule="evenodd" clip-rule="evenodd" d="M22.2468 36.856C22.9285 37.2004 23.6543 37.4609 24.4154 37.6316C24.004 38.1197 23.4398 38.6827 22.7963 39.0062C21.9382 39.4374 21.4005 40.1771 21.4681 42.3453C21.4681 42.3453 19.5463 39.9585 21.1624 37.9939C21.3593 37.6555 21.806 37.3411 22.2468 36.856Z" fill="#FF9100"/>
<path fill-rule="evenodd" clip-rule="evenodd" d="M32.1612 35.8794C32.2787 36.4843 32.3492 37.221 32.2229 37.8829C32.0377 38.8412 32.2875 39.7276 34.0154 40.9884C34.0154 40.9884 30.9887 41.0932 30.4392 38.5956C30.2981 38.2332 30.3216 37.6882 30.2129 37.0444C30.9064 36.7329 31.5588 36.3406 32.1612 35.8794Z" fill="#FF9100"/>
<path fill-rule="evenodd" clip-rule="evenodd" d="M35.9082 29.8186C36.3842 30.145 37.4803 30.9685 37.9916 31.9957C38.4236 32.8672 39.1553 33.4063 41.2798 33.3134C41.2798 33.3134 38.9584 35.299 37.016 33.6758C36.5429 33.3943 36.1139 32.6097 35.1824 32.0497C35.5027 31.3489 35.7495 30.6002 35.9082 29.8186Z" fill="#FF9100"/>
<path fill-rule="evenodd" clip-rule="evenodd" d="M34.5391 22.0894C35.2002 21.9487 36.1935 21.8169 37.0456 22.0355C37.9742 22.2751 38.8528 22.0685 40.1811 20.3765C40.1811 20.3765 40.1252 23.461 37.6451 23.8893C37.1779 24.051 36.4256 23.9132 35.5264 24.1408C35.2708 23.4161 34.9387 22.7273 34.5391 22.0894Z" fill="#FF9100"/>
<path fill-rule="evenodd" clip-rule="evenodd" d="M28.3623 17.6891C28.8207 17.195 29.5083 16.5661 30.2694 16.2576C31.1598 15.8982 31.7563 15.2065 31.865 13.0413C31.865 13.0413 33.587 15.5808 31.821 17.4046C31.5888 17.734 31.104 18.0125 30.6132 18.4797C29.905 18.1233 29.1528 17.8568 28.3623 17.6891Z" fill="#FF9100"/>
<path fill-rule="evenodd" clip-rule="evenodd" d="M21.562 19.0487C21.4621 18.3719 21.3769 17.2668 21.6766 16.3534C21.9792 15.4281 21.8411 14.5177 20.2837 13.0413C20.2837 13.0413 23.2987 13.3318 23.5308 15.8803C23.6542 16.3624 23.4691 17.1051 23.6189 18.0185C22.8902 18.2761 22.1996 18.6234 21.562 19.0487Z" fill="#FF9100"/>
<path fill-rule="evenodd" clip-rule="evenodd" d="M28.6378 7.60303C28.6378 7.60303 29.7982 11.8602 27.7095 15.1713C27.3547 15.7339 26.8725 18.4632 28.6378 19.4284C28.8699 19.5554 30.4944 20.1379 32.1189 19.4284C32.1082 19.3849 34.4395 17.7729 37.4564 17.2999C41.1695 17.0633 42.2735 14.2082 42.3299 14.6983C42.4269 15.5388 41.4879 18.1149 38.8489 18.9554C35.1358 20.1379 35.1357 20.3745 34.2075 23.4491C34.2075 23.6856 33.1202 25.3411 37.6885 25.3411C39.7771 25.3411 41.2364 26.8484 41.8658 27.2332C43.0261 27.9427 45.7613 29.7262 46.9713 28.4157C46.8566 28.5035 45.8548 31.1569 42.0978 30.0713C41.4633 29.9017 36.9454 27.9746 35.1357 30.0713C34.7925 30.4322 33.4089 31.859 35.1357 33.6189C36.2961 34.8014 36.7602 35.0379 36.9923 38.1125C36.9923 39.0586 37.4096 41.3629 39.0809 41.6602C38.9085 41.6181 35.1357 41.1871 35.1357 38.3491C35.1357 35.984 30.1625 32.6587 28.6378 36.93C28.2157 38.1125 29.102 40.4776 26.3171 42.3697C25.853 42.8427 24.4933 43.5385 25.3888 46.3903C25.3561 46.4719 23.3329 44.6865 24.6926 41.6602C24.7595 41.4378 26.7142 37.6923 24.6926 36.2205C24.4281 35.8972 22.372 34.8014 20.5154 36.2205C20.0513 36.6935 17.4985 38.3491 14.4816 38.3491C14.0144 38.3491 12.1145 38.7542 11.2326 40.4776C11.1526 40.3986 11.4004 37.1556 14.4816 36.2205C14.6909 36.1171 17.7932 35.9362 18.8909 32.6729C19.0288 32.1123 18.8909 29.1252 15.6419 29.3618C14.9457 29.4124 13.3213 29.3618 11.2326 26.9967C10.5364 26.0506 8.28513 26.0989 7.05539 26.9967C6.79408 26.9004 8.96834 23.9102 12.393 25.3411C12.8571 25.5351 15.4099 27.4697 17.7306 26.2872C18.2625 26.0161 19.8345 25.2957 18.8909 22.7395C18.6289 22.03 17.2664 21.3205 16.5702 17.7729C16.5245 17.2024 15.4231 14.3527 13.7854 13.2792C13.8989 12.9874 16.5702 13.5157 18.4268 16.8268C18.8909 17.5364 20.9795 20.1379 22.8361 19.6649C23.9964 19.1919 24.5977 18.6092 24.6926 16.8268C24.82 16.3091 24.7739 14.6959 26.3171 13.2792C26.7813 12.853 28.8587 12.7447 28.6378 7.60303Z" fill="#FF9100"/>
</g>
<path fill-rule="evenodd" clip-rule="evenodd" d="M18.2493 26.0892C17.8299 25.7853 17.3523 25.3678 17.0517 24.8712C16.6372 24.1868 15.9996 23.7915 14.2589 24.0163C14.2589 24.0163 16.0335 22.2226 17.7402 23.4234C18.053 23.5741 18.3657 23.9718 18.8578 24.3276C18.5936 24.8835 18.3899 25.474 18.2493 26.0892Z" fill="white"/>
<path fill-rule="evenodd" clip-rule="evenodd" d="M18.397 30.5786C18.5813 31.1864 18.8261 31.7646 19.1292 32.3032C18.5813 32.402 17.7691 32.4811 17.0782 32.2785C16.3194 32.0561 15.5873 32.2043 14.4503 33.5657C14.4503 33.5657 14.5763 31.0209 16.6297 30.7368C17.0249 30.6132 17.6455 30.7491 18.397 30.5786Z" fill="white"/>
<path fill-rule="evenodd" clip-rule="evenodd" d="M22.5786 35.6312C23.141 35.9153 23.7398 36.1302 24.3677 36.2711C24.0283 36.6738 23.5628 37.1382 23.0319 37.4051C22.324 37.7609 21.8804 38.3711 21.9362 40.1599C21.9362 40.1599 20.3507 38.1907 21.684 36.57C21.8464 36.2908 22.2149 36.0314 22.5786 35.6312Z" fill="white"/>
<path fill-rule="evenodd" clip-rule="evenodd" d="M30.7579 34.8255C30.8549 35.3246 30.9131 35.9323 30.8088 36.4784C30.6561 37.269 30.8622 38.0003 32.2876 39.0404C32.2876 39.0404 29.7907 39.1269 29.3373 37.0664C29.2209 36.7674 29.2403 36.3178 29.1506 35.7866C29.7228 35.5296 30.261 35.206 30.7579 34.8255Z" fill="white"/>
<path fill-rule="evenodd" clip-rule="evenodd" d="M33.8492 29.8253C34.242 30.0946 35.1462 30.7741 35.5681 31.6215C35.9244 32.3404 36.5281 32.7852 38.2809 32.7086C38.2809 32.7086 36.3657 34.3466 34.7632 33.0076C34.3729 32.7753 34.019 32.128 33.2505 31.666C33.5147 31.0878 33.7183 30.4702 33.8492 29.8253Z" fill="white"/>
<path fill-rule="evenodd" clip-rule="evenodd" d="M32.7197 23.4488C33.2652 23.3327 34.0846 23.2239 34.7877 23.4043C35.5537 23.602 36.2786 23.4315 37.3744 22.0356C37.3744 22.0356 37.3283 24.5803 35.2822 24.9337C34.8968 25.0671 34.2761 24.9534 33.5343 25.1412C33.3234 24.5433 33.0494 23.975 32.7197 23.4488Z" fill="white"/>
<path fill-rule="evenodd" clip-rule="evenodd" d="M27.6239 19.8185C28.0021 19.4109 28.5694 18.892 29.1973 18.6375C29.9318 18.3411 30.424 17.7703 30.5137 15.984C30.5137 15.984 31.9343 18.0791 30.4773 19.5838C30.2858 19.8556 29.8858 20.0853 29.4809 20.4707C28.8967 20.1767 28.276 19.9569 27.6239 19.8185Z" fill="white"/>
<path fill-rule="evenodd" clip-rule="evenodd" d="M22.0136 20.9402C21.9312 20.3818 21.8609 19.4701 22.1082 18.7166C22.3579 17.9531 22.2439 17.2021 20.959 15.984C20.959 15.984 23.4464 16.2237 23.6379 18.3262C23.7397 18.724 23.587 19.3367 23.7106 20.0903C23.1094 20.3028 22.5397 20.5893 22.0136 20.9402Z" fill="white"/>
<path fill-rule="evenodd" clip-rule="evenodd" d="M27.8512 11.4975C27.8512 11.4975 28.8085 15.0096 27.0854 17.7413C26.7926 18.2055 26.3948 20.4572 27.8512 21.2534C28.0427 21.3582 29.3829 21.8388 30.7231 21.2534C30.7142 21.2175 32.6376 19.8876 35.1266 19.4974C38.1899 19.3023 39.1006 16.9468 39.1472 17.3511C39.2272 18.0445 38.4526 20.1698 36.2753 20.8632C33.212 21.8388 33.212 22.0339 32.4462 24.5705C32.4462 24.7656 31.5492 26.1314 35.318 26.1314C37.0411 26.1314 38.245 27.3749 38.7642 27.6924C39.7215 28.2777 41.978 29.7491 42.9763 28.668C42.8817 28.7404 42.0552 30.9294 38.9557 30.0338C38.4323 29.8939 34.705 28.3041 33.212 30.0338C32.9288 30.3316 31.7874 31.5087 33.212 32.9606C34.1693 33.9362 34.5522 34.1313 34.7437 36.6679C34.7437 37.4483 35.0879 39.3494 36.4668 39.5946C36.3245 39.5599 33.212 39.2044 33.212 36.863C33.212 34.9118 29.1091 32.1684 27.8512 35.6923C27.5029 36.6679 28.2341 38.619 25.9366 40.18C25.5537 40.5702 24.432 41.1443 25.1708 43.497C25.1438 43.5643 23.4747 42.0914 24.5964 39.5946C24.6516 39.4112 26.2642 36.3211 24.5964 35.1069C24.3782 34.8402 22.6819 33.9362 21.1502 35.1069C20.7673 35.4971 18.6613 36.863 16.1723 36.863C15.7869 36.863 14.2195 37.1972 13.4919 38.619C13.4259 38.5539 13.6303 35.8784 16.1723 35.1069C16.345 35.0216 18.9044 34.8724 19.81 32.1801C19.9237 31.7177 19.81 29.2533 17.1296 29.4484C16.5552 29.4902 15.215 29.4484 13.4919 27.4973C12.9176 26.7168 11.0602 26.7566 10.0457 27.4973C9.83012 27.4178 11.6239 24.951 14.4492 26.1314C14.8321 26.2914 16.9382 27.8875 18.8527 26.9119C19.2915 26.6883 20.5885 26.094 19.81 23.9851C19.5939 23.3998 18.4698 22.8144 17.8954 19.8876C17.8577 19.417 16.9491 17.066 15.598 16.1804C15.6916 15.9396 17.8954 16.3755 19.4271 19.1071C19.81 19.6925 21.5331 21.8388 23.0648 21.4486C24.0221 21.0583 24.5181 20.5776 24.5964 19.1071C24.7015 18.68 24.6634 17.3491 25.9366 16.1804C26.3195 15.8287 28.0335 15.7394 27.8512 11.4975Z" fill="white"/>
<defs>
<filter id="filter0_f_118_420" x="0" y="0" width="54" height="54" filterUnits="userSpaceOnUse" color-interpolation-filters="sRGB">
<feFlood flood-opacity="0" result="BackgroundImageFix"/>
<feBlend mode="normal" in="SourceGraphic" in2="BackgroundImageFix" result="shape"/>
<feGaussianBlur stdDeviation="3.5" result="effect1_foregroundBlur_118_420"/>
</filter>
</defs>
</svg>
