<svg width="51" height="50" viewBox="0 0 51 50" fill="none" xmlns="http://www.w3.org/2000/svg">
<g filter="url(#filter0_f_118_338)">
<path fill-rule="evenodd" clip-rule="evenodd" d="M12.7408 27.1546C10.1612 16.5626 20.9923 8.99803 31.3067 15.2095C24.6024 3.74219 3.97355 12.8205 12.7408 27.1546Z" fill="#FF9100"/>
<path fill-rule="evenodd" clip-rule="evenodd" d="M34.4011 20.9424C34.4011 20.9424 32.1123 25.343 27.1083 27.2938C26.9 27.3153 37.5124 23.3051 40.0235 21.9759C39.8729 21.7776 34.4011 20.9424 34.4011 20.9424Z" fill="#FF9100"/>
<path fill-rule="evenodd" clip-rule="evenodd" d="M23.5292 33.8396C17.5479 33.692 12.7413 29.147 12.7413 23.5703C12.7413 17.9006 17.7094 13.2977 23.8291 13.2977C28.7261 13.2977 32.8859 16.245 34.3525 20.3283C33.8686 21.0492 30.9888 25.1239 26.2572 27.4376C25.2501 27.7647 24.6277 27.9588 24.6277 27.9588L22.8457 33.8034C22.854 33.9034 23.2978 33.7851 23.5292 33.8396Z" fill="#FF9100"/>
<path fill-rule="evenodd" clip-rule="evenodd" d="M40.382 21.976L34.6415 31.6152L23.1616 33.9417L24.9552 28.2912C24.9552 28.2912 36.4357 24.3024 40.382 21.976Z" fill="#FF9100"/>
<path fill-rule="evenodd" clip-rule="evenodd" d="M16.3455 31.6147L13.4755 35.6033C16.3265 37.5939 18.6068 38.6801 22.8032 38.2623V34.2737C20.0483 33.8613 18.4733 33.2473 16.3455 31.6147Z" fill="#FF9100"/>
<path fill-rule="evenodd" clip-rule="evenodd" d="M23.1616 34.2737L34.6418 31.947L33.5655 34.2737H23.1616Z" fill="#FF9100"/>
<path fill-rule="evenodd" clip-rule="evenodd" d="M23.1616 37.9304C27.0304 39.3683 31.1644 39.9187 34.8226 38.9748L35.0006 39.5923C30.67 40.3698 26.6892 40.0361 23.1616 38.2628V37.9304ZM23.1616 34.6066H33.5655L34.7358 38.673C31.2591 39.6508 27.1449 39.1263 23.1616 37.598V34.6066Z" fill="#FF9100"/>
</g>
<path fill-rule="evenodd" clip-rule="evenodd" d="M14.2874 26.4391C12.0204 16.9064 21.5387 10.0982 30.6029 15.6885C24.7112 5.36797 6.58282 13.5384 14.2874 26.4391Z" fill="white"/>
<path fill-rule="evenodd" clip-rule="evenodd" d="M33.3222 20.8481C33.3222 20.8481 31.3108 24.8087 26.9134 26.5644C26.7303 26.5838 36.0564 22.9746 38.2631 21.7783C38.1307 21.5998 33.3222 20.8481 33.3222 20.8481Z" fill="white"/>
<path fill-rule="evenodd" clip-rule="evenodd" d="M23.7681 32.4556C18.5118 32.3228 14.2878 28.2323 14.2878 23.2133C14.2878 18.1105 18.6537 13.968 24.0316 13.968C28.3351 13.968 31.9907 16.6205 33.2795 20.2954C32.8542 20.9443 30.3235 24.6115 26.1654 26.6938C25.2804 26.9882 24.7334 27.1629 24.7334 27.1629L23.1674 32.423C23.1747 32.5131 23.5647 32.4066 23.7681 32.4556Z" fill="white"/>
<path fill-rule="evenodd" clip-rule="evenodd" d="M38.5781 21.7784L33.5334 30.4537L23.445 32.5475L25.0213 27.462C25.0213 27.462 35.1102 23.8722 38.5781 21.7784Z" fill="white"/>
<path fill-rule="evenodd" clip-rule="evenodd" d="M17.4552 30.4532L14.933 34.0429C17.4385 35.8345 19.4423 36.8121 23.1301 36.4361V32.8464C20.7091 32.4751 19.325 31.9226 17.4552 30.4532Z" fill="white"/>
<path fill-rule="evenodd" clip-rule="evenodd" d="M23.445 32.8463L33.5337 30.7523L32.5879 32.8463H23.445Z" fill="white"/>
<path fill-rule="evenodd" clip-rule="evenodd" d="M23.445 36.1374C26.8449 37.4315 30.4778 37.9269 33.6926 37.0773L33.849 37.6331C30.0433 38.3328 26.5451 38.0325 23.445 36.4365V36.1374ZM23.445 33.146H32.5879L33.6163 36.8057C30.561 37.6858 26.9455 37.2137 23.445 35.8382V33.146Z" fill="white"/>
<defs>
<filter id="filter0_f_118_338" x="-1" y="0" width="53" height="50" filterUnits="userSpaceOnUse" color-interpolation-filters="sRGB">
<feFlood flood-opacity="0" result="BackgroundImageFix"/>
<feBlend mode="normal" in="SourceGraphic" in2="BackgroundImageFix" result="shape"/>
<feGaussianBlur stdDeviation="5" result="effect1_foregroundBlur_118_338"/>
</filter>
</defs>
</svg>
